<svg width="1731" height="531" viewBox="0 0 1731 531" fill="none" xmlns="http://www.w3.org/2000/svg">
<g clip-path="url(#clip0_807_13)">
<path d="M364.34 291.977C365.774 296.016 366.213 300.339 365.62 304.583C365.027 308.826 363.42 312.866 360.934 316.364C358.447 319.862 355.153 322.716 351.329 324.686C347.504 326.657 343.261 327.686 338.954 327.688H78.6541C73.9707 327.572 69.5184 325.639 66.2472 322.304C62.9761 318.968 61.145 314.492 61.145 309.832C61.145 305.172 62.9761 300.697 66.2472 297.361C69.5184 294.025 73.9707 292.093 78.6541 291.977C78.966 291.977 79.2668 291.977 79.5564 291.977C77.7346 283.066 78.6921 273.814 82.3008 265.459C85.9095 257.104 91.9973 250.044 99.7496 245.225C107.502 240.405 116.549 238.055 125.681 238.49C134.812 238.925 143.593 242.123 150.847 247.657C153.082 224.84 164.055 203.754 181.493 188.764C198.93 173.775 221.496 166.032 244.515 167.138C267.535 168.245 289.245 178.116 305.148 194.708C321.051 211.3 329.929 233.341 329.942 256.266C329.952 262.262 329.344 268.243 328.126 274.116C327.97 274.958 327.792 275.778 327.592 276.598C330.997 275.022 334.695 274.173 338.45 274.103C342.204 274.034 345.932 274.746 349.393 276.194C352.855 277.642 355.974 279.794 358.55 282.512C361.125 285.23 363.102 288.454 364.351 291.977H364.34ZM271.294 274.116C275.237 267.312 276.813 259.405 275.777 251.62C274.742 243.835 271.154 236.608 265.568 231.058C259.983 225.508 252.713 221.946 244.886 220.925C237.058 219.903 229.111 221.478 222.275 225.407C215.439 229.335 210.098 235.397 207.078 242.653C204.059 249.909 203.53 257.952 205.574 265.537C207.618 273.122 212.121 279.824 218.384 284.605C224.648 289.385 232.322 291.976 240.216 291.977C246.522 292 252.721 290.359 258.18 287.221C263.64 284.083 268.165 279.561 271.294 274.116ZM150.034 291.977C150.325 290.577 150.471 289.151 150.468 287.722C150.468 282.774 148.77 277.974 145.656 274.116C143.503 271.469 140.782 269.334 137.693 267.867C134.603 266.401 131.223 265.64 127.8 265.64C124.377 265.64 120.997 266.401 117.907 267.867C114.818 269.334 112.097 271.469 109.944 274.116C106.83 277.974 105.132 282.774 105.132 287.722C105.129 289.151 105.275 290.577 105.566 291.977C106.664 297.031 109.468 301.56 113.514 304.808C117.559 308.055 122.601 309.827 127.8 309.827C132.999 309.827 138.041 308.055 142.086 304.808C146.132 301.56 148.937 297.031 150.034 291.977V291.977Z" fill="#6981C9"/>
<path d="M563.555 122.868V405.497H627.96V300.667H666.672C721.827 300.667 763.279 268.122 763.279 209.883C763.279 151.302 721.827 122.868 666.672 122.868H563.555ZM627.96 249.28V174.255H646.117C671.468 174.255 695.448 182.819 695.448 211.939C695.448 240.716 671.468 249.28 646.117 249.28H627.96ZM913.18 122.868H853.571L739.491 405.497H808.693L829.59 348.971H937.16L958.058 405.497H1027.26L913.18 122.868ZM915.235 292.445H851.515L883.033 210.226H883.718L915.235 292.445ZM1293.85 247.225H1163.33V296.899H1228.42C1228.42 331.499 1197.93 351.369 1167.09 351.369C1127.35 351.369 1095.15 312.315 1095.15 264.354C1095.15 215.365 1127.35 175.968 1167.09 175.968C1192.1 175.968 1213.68 185.903 1230.13 212.281L1272.27 166.033C1247.6 136.228 1213 117.729 1163.33 117.729C1083.85 117.729 1025.61 183.162 1025.61 264.354C1025.61 345.203 1087.27 410.636 1163.33 410.636C1218.82 410.636 1278.43 380.146 1293.85 308.546V247.225ZM1484.02 122.868H1322.32V405.497H1484.02V348.971H1386.72V292.103H1479.9V235.577H1386.72V179.394H1484.02V122.868ZM1625.19 117.729C1579.62 117.729 1533.03 151.302 1533.03 204.059C1533.03 233.521 1552.9 259.9 1586.82 276.686C1620.39 293.473 1650.54 302.723 1650.54 323.277C1650.54 349.656 1623.82 351.026 1609.77 351.026C1578.25 351.026 1540.57 319.166 1540.57 319.166L1508.37 373.294C1508.37 373.294 1548.45 410.636 1614.57 410.636C1669.72 410.636 1721.11 386.997 1721.11 319.509C1721.11 282.51 1686.51 255.789 1654.99 242.428C1622.79 228.725 1596.07 217.42 1596.07 201.661C1596.07 186.245 1607.71 176.31 1629.64 176.31C1658.76 176.31 1686.85 195.837 1686.85 195.837L1712.89 144.45C1712.89 144.45 1676.57 117.729 1625.19 117.729Z" fill="#6981C9"/>
</g>
<defs>
<clipPath id="clip0_807_13">
<rect width="1731" height="531" fill="white"/>
</clipPath>
</defs>
</svg>
