<svg width="65" height="62" viewBox="0 0 65 62" fill="none" xmlns="http://www.w3.org/2000/svg">
<g clip-path="url(#clip0_703_884)">
<path d="M45.0431 33.6755C44.8471 33.3737 44.6923 33.1052 44.5257 32.8386C44.2651 32.9543 44.0711 33.0347 43.9104 33.1131C43.2696 32.6133 43.9476 32.4663 44.1455 32.1526C43.9632 31.8234 43.7672 31.4843 43.6203 31.2315L42.7404 31.2315L42.7404 31.0689C42.8991 30.9375 43.0617 30.8081 43.2792 30.6395C43.048 30.2476 42.8324 29.8556 42.6168 29.4793L41.8761 29.7028C41.8526 29.6577 41.8311 29.6185 41.8134 29.5793C41.9858 29.4166 42.1641 29.2578 42.3757 29.0677C42.1641 28.7012 41.9505 28.3484 41.776 28.0524C41.4449 28.0779 41.2078 28.1073 40.9648 28.1152C40.7551 28.125 40.5141 28.0525 40.3319 28.127C39.9848 28.2898 39.6502 28.4779 39.3306 28.6897C39.4188 28.917 39.4913 29.1052 39.5795 29.3228C38.3569 30.1484 36.9368 30.6343 35.4647 30.7305C35.3118 30.7253 35.162 30.6865 35.0257 30.6169C34.8004 30.5189 34.5848 30.3209 34.3614 30.3131C33.5012 30.274 32.639 30.2976 31.7592 30.2977L31.759 28.6944L33.5657 28.6942L33.5656 26.9968L32.8582 26.8753L32.8581 26.1089L33.5537 25.9795L33.5536 24.8328C33.2851 24.7799 33.0617 24.7388 32.8462 24.7016L32.8461 23.947L33.5652 23.8234L33.5651 22.7179C33.3163 22.6748 33.0948 22.6396 32.8538 22.6004L32.8537 21.8458L33.5552 21.7007L33.5551 20.75C33.2906 20.7108 33.0711 20.6736 32.8399 20.6384L32.8398 19.8661L33.5648 19.7563L33.5647 18.7449L32.8573 18.645L32.8573 17.8805C33.1316 17.8198 33.355 17.7747 33.5411 17.7354L33.541 16.2105L32.1693 16.1283L32.1689 12.4904L30.4779 12.4906L30.478 13.7823C30.478 14.2057 30.4898 14.631 30.4781 15.0544C30.4664 15.4209 30.4312 15.7874 30.4077 16.1579L30.1039 16.1324L30.1034 11.0029L26.9251 11.0033L26.9254 14.1394L24.5916 14.1396L24.5918 16.2957L23.9589 16.2957L23.959 16.9465L20.5514 16.9468L20.5515 18.2228C22.2171 18.4696 22.7756 19.1243 22.7758 20.7825C22.7759 21.5116 22.776 22.2466 22.776 22.9777C22.7858 23.0643 22.8042 23.1497 22.8309 23.2326L23.4854 23.3814C23.4859 27.823 23.4863 32.2331 23.4711 36.6452C23.453 36.7469 23.4096 36.8424 23.3448 36.9229C23.2801 37.0034 23.1962 37.0664 23.1008 37.1059C22.7089 37.1941 22.6462 37.4117 22.6482 37.7665C22.6621 39.2973 22.6857 40.834 22.6487 42.3648C22.621 42.6539 22.6644 42.9454 22.775 43.2139C22.8857 43.4824 23.0604 43.7198 23.2837 43.9053C23.5169 44.1131 23.7677 44.313 23.9755 44.5305L23.9759 49.3033C24.4442 49.805 25.0018 50.215 25.6201 50.5125C25.6848 50.5439 25.6926 50.685 25.7534 50.7359C25.9043 50.8653 26.0689 51.073 26.2335 51.0809C27.2426 51.1063 28.2538 51.0944 29.306 51.0943C29.5157 50.6748 29.8252 50.3102 29.8526 49.9358C29.9191 48.7598 29.8837 47.5837 29.8522 46.4077C29.8326 46.1896 29.7352 45.9858 29.5779 45.8334C29.2095 45.5061 28.9233 45.1122 29.2192 44.6731C29.329 44.5218 29.4692 44.3952 29.6308 44.3013C29.7925 44.2075 29.9719 44.1485 30.1577 44.1281C30.6809 44.1281 30.9416 44.5338 30.9749 45.0904C31.0024 45.604 31.4923 45.8254 31.9371 45.5764C32.0185 45.5314 32.1103 45.5084 32.2034 45.5097C32.2964 45.511 32.3875 45.5366 32.4676 45.5839C32.5478 45.6312 32.6142 45.6986 32.6603 45.7794C32.7065 45.8603 32.7308 45.9517 32.7308 46.0448C32.7425 46.2055 32.7915 46.4368 32.9032 46.5015C34.3161 47.3402 35.7408 48.1555 37.2007 48.9962L38.0001 47.726C38.2568 47.8005 38.4469 47.8553 38.6624 47.9219C39.115 47.1379 39.546 46.391 39.9849 45.6383C39.7752 45.4757 39.6203 45.3463 39.4381 45.2013C39.7085 44.7093 39.9671 44.2388 40.2218 43.7762C39.4692 43.2118 38.8049 42.7493 37.9232 43.4805C37.743 43.6275 37.2805 43.4296 36.9434 43.3904C36.677 43.3611 36.3771 43.2337 36.144 43.3121C35.5894 43.4984 35.0897 43.3259 34.8369 42.7673C34.6546 42.3754 34.3901 42.2833 33.9747 42.4754C33.8062 42.5538 33.4437 42.5068 33.3516 42.3814C33.1339 42.1078 32.998 41.7783 32.9596 41.4308C32.9105 40.3743 32.9378 39.3159 32.9377 38.1555C33.4569 38.1554 33.9488 38.1809 34.4308 38.1397C34.6268 38.1279 34.7992 37.973 34.9775 37.8711C35.1558 37.7691 35.3694 37.5457 35.5438 37.5555C38.0912 37.6983 40.3543 36.8866 42.4665 35.5202C42.6879 35.3771 43.0407 35.4417 43.3287 35.4123C43.3503 35.4887 43.3718 35.5593 43.3914 35.6318L44.763 34.8222C44.6415 34.5576 44.5533 34.3714 44.4592 34.1597C44.6669 33.997 44.8413 33.8441 45.0431 33.6755ZM28.4871 13.6629C28.3144 13.6641 28.1452 13.614 28.001 13.5188C27.8568 13.4237 27.7442 13.2879 27.6773 13.1287C27.6103 12.9694 27.5922 12.7938 27.6252 12.6242C27.6581 12.4547 27.7407 12.2987 27.8624 12.1761C27.9841 12.0535 28.1394 11.9698 28.3087 11.9357C28.478 11.9015 28.6537 11.9185 28.8134 11.9843C28.973 12.0501 29.1096 12.1619 29.2057 12.3054C29.3018 12.449 29.3531 12.6178 29.3531 12.7906C29.3532 13.0209 29.2621 13.2419 29.0998 13.4053C28.9376 13.5687 28.7173 13.6613 28.4871 13.6629V13.6629Z" fill="#EE5F54"/>
<path d="M32.6963 62.0956C15.5709 62.0973 1.63864 48.1802 1.63692 31.0526C1.63519 13.9249 15.5568 0.00494508 32.69 0.00321912C49.8232 0.00149316 63.7476 13.9186 63.7494 31.0463C63.7511 48.1739 49.8177 62.0939 32.6963 62.0956ZM32.6906 5.44126C18.5714 5.44268 7.07725 16.9315 7.07867 31.052C7.08662 37.841 9.78826 44.3495 14.5908 49.1495C19.3934 53.9496 25.9046 56.649 32.6957 56.6556C46.8149 56.6542 58.309 45.1673 58.3076 31.0468C58.3062 16.9264 46.8097 5.43984 32.6906 5.44126V5.44126Z" fill="#EE5F54"/>
</g>
<defs>
<clipPath id="clip0_703_884">
<rect width="64.0667" height="62" fill="white" transform="translate(0.600586)"/>
</clipPath>
</defs>
</svg>
